# Blender 4.4.0
# www.blender.org
mtllib luzmesa.mtl
o Lanterna_Cylinder
v 0.000000 1.000000 -3.000000
v 0.000000 1.176106 4.000000
v 0.195090 0.980785 -3.000000
v 0.195090 1.156892 4.000000
v 0.382683 0.923879 -3.000000
v 0.382683 1.099986 4.000000
v 0.555570 0.831469 -3.000000
v 0.555570 1.007576 4.000000
v 0.707107 0.707107 -3.000000
v 0.707107 0.707107 4.000000
v 0.831470 0.555570 -3.000000
v 0.831470 0.555570 4.000000
v 0.923880 0.382683 -3.000000
v 0.923880 0.382683 4.000000
v 0.980785 0.195090 -3.000000
v 0.980785 0.195090 4.000000
v 1.000000 -0.000000 -3.000000
v 1.000000 0.000000 4.000000
v 0.980785 -0.195090 -3.000000
v 0.980785 -0.195090 4.000000
v 0.923880 -0.382683 -3.000000
v 0.923880 -0.382683 4.000000
v 0.831470 -0.555570 -3.000000
v 0.831470 -0.555570 4.000000
v 0.707107 -0.707107 -3.000000
v 0.707107 -0.707107 4.000000
v 0.555570 -0.831470 -3.000000
v 0.555570 -0.831470 4.000000
v 0.382683 -0.923880 -3.000000
v 0.382683 -0.923880 4.000000
v 0.195090 -0.980785 -3.000000
v 0.195090 -0.980785 4.000000
v 0.000000 -1.000000 -3.000000
v 0.000000 -1.000000 4.000000
v -0.195091 -0.980785 -3.000000
v -0.195091 -0.980785 4.000000
v -0.382684 -0.923879 -3.000000
v -0.382684 -0.923879 4.000000
v -0.555571 -0.831469 -3.000000
v -0.555571 -0.831469 4.000000
v -0.707107 -0.707106 -3.000000
v -0.707107 -0.707106 4.000000
v -0.831470 -0.555570 -3.000000
v -0.831470 -0.555570 4.000000
v -0.923880 -0.382683 -3.000000
v -0.923880 -0.382683 4.000000
v -0.980785 -0.195090 -3.000000
v -0.980785 -0.195089 4.000000
v -1.000000 0.000001 -3.000000
v -1.000000 0.000001 4.000000
v -0.980785 0.195091 -3.000000
v -0.980785 0.195091 4.000000
v -0.923879 0.382684 -3.000000
v -0.923879 0.382685 4.000000
v -0.831469 0.555571 -3.000000
v -0.831469 0.555571 4.000000
v -0.707106 0.707108 -3.000000
v -0.707106 0.883214 4.000000
v -0.555569 0.831470 -3.000000
v -0.555569 1.007577 4.000000
v -0.382682 0.923880 -3.000000
v -0.382682 1.099986 4.000000
v -0.195089 0.980785 -3.000000
v -0.195089 1.156892 4.000000
v 0.000000 1.320000 4.903784
v 0.257519 1.294637 4.903784
v 0.505142 1.219521 4.903784
v 0.733352 1.097540 4.903784
v 0.933381 0.933381 4.903784
v 1.097540 0.733353 4.903784
v 1.219521 0.505142 4.903784
v 1.294636 0.257519 4.903784
v 1.320000 0.000000 4.903784
v 1.294636 -0.257519 4.903784
v 1.219521 -0.505142 4.903784
v 1.097540 -0.733353 4.903784
v 0.933381 -0.933381 4.903784
v 0.733352 -1.097540 4.903784
v 0.505142 -1.219521 4.903784
v 0.257519 -1.294637 4.903784
v -0.000001 -1.320000 4.903784
v -0.257520 -1.294636 4.903784
v -0.505143 -1.219521 4.903784
v -0.733354 -1.097540 4.903784
v -0.933382 -0.933380 4.903784
v -1.097541 -0.733352 4.903784
v -1.219522 -0.505141 4.903784
v -1.294637 -0.257518 4.903784
v -1.320000 0.000001 4.903784
v -1.294637 0.257521 4.903784
v -1.219521 0.505144 4.903784
v -1.097539 0.733354 4.903784
v -0.933380 0.933382 4.903784
v -0.733351 1.097541 4.903784
v -0.505141 1.219522 4.903784
v -0.257518 1.294637 4.903784
v 0.000000 1.452000 6.003784
v 0.283271 1.424101 6.003784
v 0.555656 1.341473 6.003784
v 0.806688 1.207294 6.003784
v 1.026719 1.026719 6.003784
v 1.207294 0.806688 6.003784
v 1.341473 0.555658 6.003784
v 1.424100 0.283271 6.003784
v 1.452000 0.000000 6.003784
v 1.424100 -0.283271 6.003784
v 1.341473 -0.555656 6.003784
v 1.207294 -0.806688 6.003784
v 1.026719 -1.026718 6.003784
v 0.806688 -1.207294 6.003784
v 0.555656 -1.341473 6.003784
v 0.283271 -1.424100 6.003784
v 0.000000 -1.452000 6.003784
v -0.283272 -1.424100 6.003784
v -0.555657 -1.341473 6.003784
v -0.806689 -1.207293 6.003784
v -1.026720 -1.026718 6.003784
v -1.207294 -0.806687 6.003784
v -1.341474 -0.555655 6.003784
v -1.424101 -0.283270 6.003784
v -1.452000 0.000001 6.003784
v -1.424100 0.283273 6.003784
v -1.341473 0.555658 6.003784
v -1.207293 0.806690 6.003784
v -1.026718 1.026721 6.003784
v -0.806686 1.207295 6.003784
v -0.555654 1.341475 6.003784
v -0.283269 1.424101 6.003784
v 0.000000 1.452000 6.978917
v 0.283271 1.424101 6.978917
v 0.555656 1.341473 6.978917
v 0.806688 1.207294 6.978917
v 1.026719 1.026719 6.978917
v 1.207294 0.806689 6.978917
v 1.341473 0.555658 6.978917
v 1.424100 0.283272 6.978917
v 1.452000 0.000001 6.978917
v 1.424100 -0.283270 6.978917
v 1.341473 -0.555655 6.978917
v 1.207294 -0.806687 6.978917
v 1.026719 -1.026718 6.978917
v 0.806688 -1.207294 6.978917
v 0.555656 -1.341473 6.978917
v 0.283271 -1.424100 6.978917
v 0.000000 -1.452000 6.978917
v -0.283272 -1.424100 6.978917
v -0.555657 -1.341473 6.978917
v -0.806689 -1.207293 6.978917
v -1.026720 -1.026718 6.978917
v -1.207294 -0.806686 6.978917
v -1.341474 -0.555654 6.978917
v -1.424100 -0.283269 6.978917
v -1.452000 0.000003 6.978917
v -1.424100 0.283274 6.978917
v -1.341473 0.555659 6.978917
v -1.207293 0.806691 6.978917
v -1.026718 1.026721 6.978917
v -0.806686 1.207295 6.978917
v -0.555654 1.341475 6.978917
v -0.283269 1.424101 6.978917
v 0.254944 1.281691 6.978917
v 0.000000 1.306800 6.978917
v 0.500091 1.207327 6.978917
v 0.726019 1.086565 6.978917
v 0.924047 0.924049 6.978917
v 1.086565 0.726020 6.978917
v 1.207326 0.500092 6.978917
v 1.281690 0.254945 6.978917
v 1.306800 0.000001 6.978917
v 1.281690 -0.254943 6.978917
v 1.207326 -0.500089 6.978917
v 1.086565 -0.726018 6.978917
v 0.924047 -0.924046 6.978917
v 0.726019 -1.086563 6.978917
v 0.500091 -1.207326 6.978917
v 0.254944 -1.281690 6.978917
v 0.000000 -1.306800 6.978917
v -0.254944 -1.281690 6.978917
v -0.500091 -1.207325 6.978917
v -0.726020 -1.086563 6.978917
v -0.924048 -0.924045 6.978917
v -1.086565 -0.726017 6.978917
v -1.207326 -0.500089 6.978917
v -1.281690 -0.254942 6.978917
v -1.306800 0.000003 6.978917
v -1.281690 0.254947 6.978917
v -1.207325 0.500093 6.978917
v -1.086564 0.726022 6.978917
v -0.924046 0.924050 6.978917
v -0.726018 1.086566 6.978917
v -0.500089 1.207327 6.978917
v -0.254942 1.281691 6.978917
v 0.050989 0.256339 4.978917
v 0.000000 0.261361 4.978917
v 0.100018 0.241466 4.978917
v 0.145204 0.217313 4.978917
v 0.184810 0.184810 4.978917
v 0.217313 0.145204 4.978917
v 0.241465 0.100019 4.978917
v 0.256338 0.050989 4.978917
v 0.261360 0.000000 4.978917
v 0.256338 -0.050988 4.978917
v 0.241465 -0.100018 4.978917
v 0.217313 -0.145203 4.978917
v 0.184810 -0.184809 4.978917
v 0.145204 -0.217312 4.978917
v 0.100018 -0.241465 4.978917
v 0.050989 -0.256338 4.978917
v 0.000000 -0.261360 4.978917
v -0.050989 -0.256337 4.978917
v -0.100018 -0.241465 4.978917
v -0.145204 -0.217312 4.978917
v -0.184809 -0.184809 4.978917
v -0.217313 -0.145203 4.978917
v -0.241465 -0.100018 4.978917
v -0.256338 -0.050988 4.978917
v -0.261360 0.000001 4.978917
v -0.256338 0.050990 4.978917
v -0.241465 0.100019 4.978917
v -0.217313 0.145205 4.978917
v -0.184809 0.184810 4.978917
v -0.145203 0.217314 4.978917
v -0.100018 0.241466 4.978917
v -0.050988 0.256339 4.978917
v 0.000000 1.171681 2.253068
v 0.195090 1.152466 2.253068
v 0.382683 1.095560 2.253068
v 0.555570 1.003150 2.253068
v 0.707107 0.707107 2.302295
v 0.831470 0.555570 2.302295
v 0.923880 0.382683 2.302295
v 0.980785 0.195090 2.302295
v 1.000000 0.000000 2.302295
v 0.980785 -0.195090 2.302295
v 0.923880 -0.382683 2.302295
v 0.831470 -0.555570 2.302295
v 0.707107 -0.707107 2.302295
v 0.555570 -0.831470 2.302295
v 0.382683 -0.923880 2.302295
v 0.195090 -0.980785 2.302295
v 0.000000 -1.000000 2.302295
v -0.195091 -0.980785 2.302295
v -0.382684 -0.923879 2.302295
v -0.555571 -0.831469 2.302295
v -0.707107 -0.707106 2.302295
v -0.831470 -0.555570 2.302295
v -0.923880 -0.382683 2.302295
v -0.980785 -0.195089 2.302295
v -1.000000 0.000001 2.302295
v -0.980785 0.195091 2.302295
v -0.923879 0.382684 2.302295
v -0.831469 0.555571 2.302295
v -0.707106 0.878788 2.253068
v -0.555569 1.003151 2.253068
v -0.382682 1.095561 2.253068
v -0.195089 1.152466 2.253068
v 0.195090 0.980785 1.746534
v 0.382683 0.923880 1.746534
v 0.555570 0.831470 1.746534
v 0.707107 0.707107 2.152701
v 0.831470 0.555570 2.152701
v 0.923880 0.382683 2.152701
v 0.980785 0.195090 2.152701
v 1.000000 0.000000 2.152701
v 0.980785 -0.195090 2.152701
v 0.923880 -0.382683 2.152701
v 0.831470 -0.555570 2.152701
v 0.707107 -0.707107 2.152701
v 0.555570 -0.831470 2.152701
v 0.382683 -0.923880 2.152701
v 0.195090 -0.980785 2.152701
v 0.000000 -1.000000 2.152701
v -0.195091 -0.980785 2.152701
v -0.382684 -0.923879 2.152701
v -0.555571 -0.831469 2.152701
v -0.707107 -0.707106 2.152701
v -0.831470 -0.555570 2.152701
v -0.923880 -0.382683 2.152701
v -0.980785 -0.195089 2.152701
v -1.000000 0.000001 2.152701
v -0.980785 0.195091 2.152701
v -0.923879 0.382684 2.152701
v -0.831469 0.555571 2.152701
v -0.707106 0.707108 1.746534
v -0.555569 0.831470 1.746534
v -0.382682 0.923880 1.746534
v -0.195089 0.980786 1.746534
v 0.000000 1.000000 1.746534
v 0.006798 1.180502 3.966659
v 0.199368 1.157496 3.921439
v 0.346239 1.101232 3.850728
v 0.555570 1.007576 3.909954
v 0.707107 0.707107 3.909954
v 0.831470 0.555570 3.909954
v 0.923880 0.382683 3.909954
v 0.980785 0.195090 3.909954
v 1.000000 0.000000 3.909954
v 0.980785 -0.195090 3.909954
v 0.923880 -0.382683 3.909954
v 0.831470 -0.555570 3.909954
v 0.707107 -0.707107 3.909954
v 0.555570 -0.831470 3.909954
v 0.382683 -0.923880 3.909954
v 0.195090 -0.980785 3.909954
v 0.000000 -1.000000 3.909954
v -0.195091 -0.980785 3.909954
v -0.382684 -0.923879 3.909954
v -0.555571 -0.831469 3.909954
v -0.707107 -0.707106 3.909954
v -0.831470 -0.555570 3.909954
v -0.923880 -0.382683 3.909954
v -0.980785 -0.195089 3.909954
v -1.000000 0.000001 3.909954
v -0.980785 0.195091 3.909954
v -0.923879 0.382685 3.909954
v -0.831469 0.555571 3.909954
v -0.707106 0.883214 3.909954
v -0.520068 1.015909 3.850728
v -0.386996 1.099745 3.921439
v -0.202614 1.159876 3.966659
v 0.199368 1.157496 2.353728
v 0.346239 1.101232 2.424439
v 0.555570 1.007576 2.365213
v 0.707107 0.707107 2.365213
v 0.831470 0.555570 2.365213
v 0.923880 0.382683 2.365213
v 0.980785 0.195090 2.365213
v 1.000000 0.000000 2.365213
v 0.980785 -0.195090 2.365213
v 0.923880 -0.382683 2.365213
v 0.831470 -0.555570 2.365213
v 0.707107 -0.707107 2.365213
v 0.555570 -0.831470 2.365213
v 0.382683 -0.923880 2.365213
v 0.195090 -0.980785 2.365213
v 0.000000 -1.000000 2.365213
v -0.195091 -0.980785 2.365213
v -0.382684 -0.923879 2.365213
v -0.555571 -0.831469 2.365213
v -0.707107 -0.707106 2.365213
v -0.831470 -0.555570 2.365213
v -0.923880 -0.382683 2.365213
v -0.980785 -0.195089 2.365213
v -1.000000 0.000001 2.365213
v -0.980785 0.195091 2.365213
v -0.923879 0.382684 2.365213
v -0.831469 0.555571 2.365213
v -0.707106 0.883214 2.365213
v -0.520068 1.015909 2.424439
v -0.386996 1.099745 2.353728
v -0.202614 1.159876 2.308508
v 0.006798 1.180501 2.308508
v -0.008503 1.228515 2.391416
v -0.008503 1.228515 3.883751
v -0.362918 1.155834 3.843054
v -0.196974 1.209953 3.883751
v -0.482682 1.080382 3.779413
v 0.164810 1.207810 3.843054
v 0.296994 1.157173 3.779413
v 0.164810 1.207810 2.432113
v 0.296994 1.157173 2.495754
v -0.482682 1.080382 2.495754
v -0.362918 1.155834 2.432113
v -0.196974 1.209953 2.391416
v 0.000000 0.900000 -3.000000
v 0.175581 0.882707 -3.000000
v 0.344415 0.831491 -3.000000
v 0.500013 0.748323 -3.000000
v 0.636396 0.636396 -3.000000
v 0.748323 0.500013 -3.000000
v 0.831492 0.344415 -3.000000
v 0.882707 0.175581 -3.000000
v 0.900000 -0.000000 -3.000000
v 0.882707 -0.175581 -3.000000
v 0.831492 -0.344415 -3.000000
v 0.748323 -0.500013 -3.000000
v 0.636396 -0.636396 -3.000000
v 0.500013 -0.748323 -3.000000
v 0.344415 -0.831492 -3.000000
v 0.175581 -0.882707 -3.000000
v 0.000000 -0.900000 -3.000000
v -0.175581 -0.882707 -3.000000
v -0.344415 -0.831492 -3.000000
v -0.500013 -0.748323 -3.000000
v -0.636396 -0.636396 -3.000000
v -0.748323 -0.500013 -3.000000
v -0.831492 -0.344415 -3.000000
v -0.882707 -0.175581 -3.000000
v -0.900000 0.000001 -3.000000
v -0.882706 0.175582 -3.000000
v -0.831491 0.344416 -3.000000
v -0.748322 0.500014 -3.000000
v -0.636395 0.636397 -3.000000
v -0.500012 0.748323 -3.000000
v -0.344414 0.831492 -3.000000
v -0.175580 0.882707 -3.000000
vn 0.0495 0.9584 0.2810
vn 0.2018 0.9765 -0.0755
vn 0.3027 0.9342 0.1886
vn 0.3817 0.9174 -0.1121
vn 0.4598 0.8868 0.0460
vn 0.6672 0.7325 -0.1352
vn 0.6991 0.7147 -0.0194
vn 0.8037 0.5752 -0.1527
vn 0.8380 0.5457 -0.0000
vn 0.8192 0.5474 -0.1711
vn 0.8315 0.5556 -0.0000
vn 0.9103 0.3770 -0.1711
vn 0.9239 0.3827 -0.0000
vn 0.9663 0.1922 -0.1711
vn 0.9808 0.1951 -0.0000
vn 0.9853 -0.0000 -0.1711
vn 1.0000 -0.0000 -0.0000
vn 0.9663 -0.1922 -0.1711
vn 0.9808 -0.1951 -0.0000
vn 0.9103 -0.3770 -0.1711
vn 0.9239 -0.3827 -0.0000
vn 0.8192 -0.5474 -0.1711
vn 0.8315 -0.5556 -0.0000
vn 0.6967 -0.6967 -0.1711
vn 0.7071 -0.7071 -0.0000
vn 0.5474 -0.8192 -0.1711
vn 0.5556 -0.8315 -0.0000
vn 0.3770 -0.9103 -0.1711
vn 0.3827 -0.9239 -0.0000
vn 0.1922 -0.9663 -0.1711
vn 0.1951 -0.9808 -0.0000
vn -0.0000 -0.9853 -0.1711
vn -0.0000 -1.0000 -0.0000
vn -0.1922 -0.9663 -0.1711
vn -0.1951 -0.9808 -0.0000
vn -0.3770 -0.9103 -0.1711
vn -0.3827 -0.9239 -0.0000
vn -0.5474 -0.8192 -0.1711
vn -0.5556 -0.8315 -0.0000
vn -0.6967 -0.6967 -0.1711
vn -0.7071 -0.7071 -0.0000
vn -0.8192 -0.5474 -0.1711
vn -0.8315 -0.5556 -0.0000
vn -0.9103 -0.3770 -0.1711
vn -0.9239 -0.3827 -0.0000
vn -0.9663 -0.1922 -0.1711
vn -0.9808 -0.1951 -0.0000
vn -0.9853 -0.0000 -0.1711
vn -1.0000 -0.0000 -0.0000
vn -0.9663 0.1922 -0.1711
vn -0.9808 0.1951 -0.0000
vn -0.9103 0.3770 -0.1711
vn -0.9239 0.3827 -0.0000
vn -0.8850 0.4386 -0.1564
vn -0.9103 0.4140 -0.0000
vn -0.7747 0.6161 -0.1424
vn -0.7983 0.6020 -0.0191
vn -0.5520 0.8251 -0.1207
vn -0.6239 0.7801 0.0460
vn -0.3873 0.9184 -0.0808
vn -0.4792 0.8572 0.1887
vn 0.9553 -0.1900 -0.2263
vn 0.8999 -0.3728 -0.2263
vn -0.2355 0.9303 0.2810
vn -0.0024 0.9994 -0.0355
vn -0.1914 0.9808 -0.0373
vn 0.6052 -0.4044 -0.6857
vn -0.0000 -0.0000 -1.0000
vn 0.3728 -0.8999 -0.2263
vn 0.5546 -0.8300 -0.0595
vn 0.3820 -0.9222 -0.0595
vn -0.3728 -0.8999 -0.2263
vn -0.5412 -0.8099 -0.2263
vn -0.8358 0.5055 -0.2145
vn -0.7303 0.6577 -0.1845
vn 0.8099 0.5412 -0.2263
vn 0.8999 0.3728 -0.2263
vn 0.1900 -0.9553 -0.2263
vn -0.9553 -0.1900 -0.2263
vn -0.9741 -0.0000 -0.2263
vn 0.1943 0.9709 -0.1399
vn 0.3807 0.9132 -0.1453
vn 0.8099 -0.5412 -0.2263
vn -0.6888 -0.6888 -0.2263
vn -0.5516 0.8198 -0.1540
vn 0.9553 0.1900 -0.2263
vn -0.0000 -0.9741 -0.2263
vn -0.9553 0.1900 -0.2263
vn 0.5975 0.7823 -0.1761
vn 0.6888 -0.6888 -0.2263
vn -0.8099 -0.5412 -0.2263
vn -0.3807 0.9132 -0.1453
vn 0.9741 -0.0000 -0.2263
vn -0.1900 -0.9553 -0.2263
vn -0.8999 0.3728 -0.2263
vn 0.7295 0.6506 -0.2112
vn 0.5412 -0.8099 -0.2263
vn -0.8999 -0.3728 -0.2263
vn -0.1943 0.9709 -0.1399
vn -0.0000 0.9904 -0.1381
vn -0.1947 -0.9791 -0.0595
vn -0.0000 -0.7279 0.6857
vn -0.1420 -0.7139 0.6857
vn -0.0000 0.9982 -0.0595
vn 0.1947 0.9790 -0.0595
vn -0.8300 0.5546 -0.0595
vn -0.7059 0.7059 -0.0595
vn 0.1947 -0.9791 -0.0595
vn 0.3820 0.9222 -0.0595
vn -0.5546 0.8300 -0.0595
vn -0.0000 -0.9982 -0.0595
vn 0.5546 0.8300 -0.0595
vn -0.3820 0.9222 -0.0595
vn 0.7059 0.7059 -0.0595
vn -0.1947 0.9791 -0.0595
vn -0.3820 -0.9222 -0.0595
vn 0.8300 0.5546 -0.0595
vn -0.5546 -0.8300 -0.0595
vn 0.9222 0.3820 -0.0595
vn -0.7059 -0.7059 -0.0595
vn 0.9790 0.1947 -0.0595
vn -0.8300 -0.5546 -0.0595
vn 0.9982 -0.0000 -0.0595
vn -0.9222 -0.3820 -0.0595
vn 0.9790 -0.1947 -0.0595
vn -0.9791 -0.1947 -0.0595
vn 0.9222 -0.3820 -0.0595
vn -0.9982 -0.0000 -0.0595
vn 0.8300 -0.5546 -0.0595
vn -0.9791 0.1947 -0.0595
vn 0.7059 -0.7059 -0.0595
vn -0.9222 0.3820 -0.0595
vn 0.6725 0.2785 0.6857
vn -0.4104 -0.2742 0.8697
vn -0.4560 -0.1889 0.8697
vn 0.4044 0.6052 0.6857
vn 0.5147 0.5147 0.6857
vn -0.2785 0.6725 0.6857
vn -0.1420 0.7139 0.6857
vn -0.2785 -0.6725 0.6857
vn 0.6052 0.4044 0.6857
vn -0.0000 0.7279 0.6857
vn -0.4044 -0.6052 0.6857
vn -0.5147 -0.5147 0.6857
vn 0.7139 0.1420 0.6857
vn -0.6052 -0.4044 0.6857
vn 0.7279 -0.0000 0.6857
vn -0.6725 -0.2785 0.6857
vn 0.7139 -0.1420 0.6857
vn -0.7139 -0.1420 0.6857
vn 0.6725 -0.2785 0.6857
vn -0.7279 -0.0000 0.6857
vn 0.6052 -0.4044 0.6857
vn -0.7139 0.1420 0.6857
vn 0.5147 -0.5147 0.6857
vn -0.6725 0.2785 0.6857
vn 0.4044 -0.6052 0.6857
vn -0.6052 0.4044 0.6857
vn 0.2785 -0.6725 0.6857
vn 0.1420 0.7139 0.6857
vn -0.5147 0.5147 0.6857
vn 0.1420 -0.7139 0.6857
vn 0.2785 0.6725 0.6857
vn -0.4044 0.6052 0.6857
vn -0.4841 0.0963 0.8697
vn -0.5410 -0.0000 0.8411
vn -0.5306 0.1055 0.8410
vn 0.2742 0.4104 0.8697
vn 0.3490 0.3490 0.8697
vn -0.4841 -0.0963 0.8697
vn 0.4104 0.2742 0.8697
vn -0.4936 -0.0000 0.8697
vn 0.4560 0.1889 0.8697
vn 0.4841 0.0963 0.8697
vn -0.4560 0.1889 0.8697
vn 0.4936 -0.0000 0.8697
vn -0.4104 0.2742 0.8697
vn 0.4841 -0.0963 0.8697
vn -0.3490 0.3490 0.8697
vn 0.4560 -0.1889 0.8697
vn -0.2742 0.4104 0.8697
vn 0.4104 -0.2742 0.8697
vn -0.1889 0.4560 0.8697
vn -0.0000 -0.4936 0.8697
vn -0.0963 -0.4841 0.8697
vn 0.3490 -0.3490 0.8697
vn -0.0963 0.4841 0.8697
vn -0.1889 -0.4560 0.8697
vn 0.2742 -0.4104 0.8697
vn -0.0000 0.4936 0.8697
vn -0.2742 -0.4104 0.8697
vn 0.1889 -0.4560 0.8697
vn 0.0963 0.4841 0.8697
vn -0.3490 -0.3490 0.8697
vn 0.0963 -0.4841 0.8697
vn 0.1889 0.4560 0.8697
vn 0.2070 0.4998 0.8410
vn -0.4998 0.2070 0.8410
vn -0.2070 -0.4998 0.8410
vn 0.4998 0.2070 0.8410
vn 0.5306 0.1055 0.8410
vn 0.5409 -0.0000 0.8411
vn -0.4498 0.3005 0.8411
vn 0.5306 -0.1055 0.8411
vn -0.3825 0.3825 0.8410
vn 0.4998 -0.2070 0.8410
vn -0.3005 0.4498 0.8411
vn 0.4498 -0.3005 0.8411
vn -0.2070 0.4998 0.8410
vn -0.0000 -0.5410 0.8411
vn -0.1055 -0.5306 0.8411
vn 0.3825 -0.3825 0.8411
vn -0.1055 0.5306 0.8411
vn 0.3006 -0.4498 0.8410
vn -0.0000 0.5410 0.8411
vn -0.3005 -0.4498 0.8411
vn 0.2070 -0.4998 0.8410
vn 0.1055 0.5306 0.8411
vn -0.3825 -0.3825 0.8411
vn 0.1055 -0.5306 0.8411
vn -0.4498 -0.3005 0.8411
vn 0.3005 0.4498 0.8411
vn -0.4998 -0.2070 0.8410
vn 0.3825 0.3825 0.8411
vn -0.5306 -0.1055 0.8410
vn 0.4498 0.3005 0.8411
vn -0.3818 0.9116 -0.1521
vn -0.1905 0.9571 -0.2184
vn -0.1945 0.9676 -0.1612
vn 0.0014 0.9751 -0.2218
vn -0.0000 0.9864 -0.1643
vn -0.5550 0.8205 -0.1371
vn -0.3853 0.9064 -0.1732
vn -0.7338 0.6760 -0.0672
vn -0.5497 0.8255 -0.1281
vn -0.8932 0.4476 -0.0432
vn -0.7882 0.6081 -0.0944
vn -0.9066 0.4213 -0.0254
vn 0.8089 0.5854 -0.0549
vn 0.5918 0.8022 -0.0793
vn 0.8316 0.5545 -0.0321
vn 0.3818 0.9117 -0.1521
vn 0.6849 0.7200 -0.1119
vn 0.1945 0.9676 -0.1612
vn 0.3788 0.9143 -0.1431
vn 0.2024 0.9621 -0.1826
vn -0.0000 0.7279 -0.6857
vn 0.1420 0.7139 -0.6857
vn 0.2786 0.6725 -0.6857
vn 0.4044 0.6052 -0.6857
vn 0.5147 0.5147 -0.6857
vn 0.6052 0.4044 -0.6857
vn 0.6725 0.2785 -0.6857
vn 0.7139 0.1420 -0.6857
vn 0.7279 -0.0000 -0.6857
vn 0.7139 -0.1420 -0.6857
vn 0.6725 -0.2785 -0.6857
vn 0.5147 -0.5147 -0.6857
vn 0.4044 -0.6052 -0.6857
vn 0.2785 -0.6725 -0.6857
vn 0.1420 -0.7139 -0.6857
vn -0.0000 -0.7279 -0.6857
vn -0.1420 -0.7139 -0.6857
vn -0.2786 -0.6725 -0.6857
vn -0.4044 -0.6052 -0.6857
vn -0.5147 -0.5147 -0.6857
vn -0.6052 -0.4044 -0.6857
vn -0.6725 -0.2785 -0.6857
vn -0.7139 -0.1420 -0.6857
vn -0.7279 -0.0000 -0.6857
vn -0.7139 0.1420 -0.6857
vn -0.6725 0.2786 -0.6857
vn -0.6052 0.4044 -0.6857
vn -0.5147 0.5147 -0.6857
vn -0.4044 0.6052 -0.6857
vn -0.2785 0.6725 -0.6857
vn -0.1420 0.7139 -0.6857
vn -0.2199 0.9382 0.2672
vn -0.4578 0.8626 0.2151
vn -0.2324 0.9250 -0.3005
vn -0.4578 0.8626 -0.2151
vn -0.2199 0.9382 -0.2672
vn 0.5575 0.8241 0.1003
vn 0.2807 0.9354 0.2151
vn -0.7956 0.6058 0.0063
vn -0.6242 0.7790 -0.0595
vn -0.9101 0.4143 -0.0022
vn 0.8377 0.5461 -0.0028
vn 0.6957 0.7184 0.0047
vn 0.4603 0.8857 -0.0606
vn 0.3042 0.9295 -0.2087
vn 0.0326 0.9631 -0.2672
vn 0.2807 0.9354 -0.2151
vn 0.5575 0.8241 -0.1003
vn -0.4794 0.8527 -0.2075
vn 0.0480 0.9524 -0.3011
vn 0.0326 0.9631 0.2672
vn -0.7075 0.6995 -0.1003
vn -0.7075 0.6995 0.1003
vt 0.142514 0.877339
vt 0.126129 0.880369
vt 0.125729 0.873554
vt 0.109130 0.880472
vt 0.112088 0.867466
vt 0.092138 0.880376
vt 0.092183 0.872571
vt 0.059685 0.759893
vt 0.033863 0.758738
vt 0.035877 0.752367
vt 0.474251 0.738239
vt 0.478691 0.747904
vt 0.474251 0.747904
vt 0.478691 0.757569
vt 0.474251 0.757569
vt 0.478691 0.767234
vt 0.474251 0.767234
vt 0.478691 0.776900
vt 0.474251 0.776900
vt 0.478691 0.786565
vt 0.474251 0.786565
vt 0.478691 0.796230
vt 0.474251 0.796230
vt 0.478691 0.805895
vt 0.474251 0.805895
vt 0.478691 0.815560
vt 0.474251 0.815560
vt 0.478691 0.825226
vt 0.474251 0.825226
vt 0.478691 0.834891
vt 0.474251 0.834891
vt 0.478691 0.844556
vt 0.474251 0.844556
vt 0.478691 0.854221
vt 0.474251 0.854221
vt 0.478691 0.863886
vt 0.474251 0.863886
vt 0.478691 0.873552
vt 0.474251 0.873552
vt 0.478691 0.883217
vt 0.474251 0.883217
vt 0.478691 0.892882
vt 0.474251 0.892882
vt 0.478691 0.902548
vt 0.474251 0.902548
vt 0.478691 0.912213
vt 0.474251 0.912213
vt 0.478691 0.921878
vt 0.474251 0.921878
vt 0.478691 0.931543
vt 0.474251 0.931543
vt 0.478691 0.941208
vt 0.474251 0.941208
vt 0.478691 0.950874
vt 0.474251 0.950874
vt 0.478691 0.960539
vt 0.474251 0.960539
vt 0.256401 0.752617
vt 0.233280 0.766264
vt 0.231423 0.759846
vt 0.211206 0.872564
vt 0.194250 0.880476
vt 0.191291 0.867451
vt 0.177217 0.880377
vt 0.177619 0.873542
vt 0.837530 0.713118
vt 0.866581 0.738915
vt 0.855513 0.746143
vt 0.160768 0.877335
vt 0.143109 0.880251
vt 0.160170 0.880259
vt 0.899986 0.217783
vt 0.882688 0.219489
vt 0.894764 0.211420
vt 0.837312 0.716392
vt 0.872895 0.747630
vt 0.859419 0.756680
vt 0.794930 0.694931
vt 0.764241 0.718561
vt 0.759090 0.706360
vt 0.825573 0.653117
vt 0.803713 0.619461
vt 0.816938 0.616112
vt 0.852750 0.695124
vt 0.892374 0.693730
vt 0.889217 0.706719
vt 0.809115 0.712943
vt 0.804213 0.751116
vt 0.792015 0.746103
vt 0.801088 0.666761
vt 0.763541 0.654426
vt 0.770771 0.643053
vt 0.853789 0.668155
vt 0.879110 0.642401
vt 0.886149 0.654122
vt 0.832012 0.715368
vt 0.843284 0.751125
vt 0.793877 0.689070
vt 0.756382 0.693363
vt 0.831387 0.653200
vt 0.831456 0.616133
vt 0.850311 0.700669
vt 0.883732 0.718849
vt 0.804282 0.709613
vt 0.781020 0.738812
vt 0.805444 0.662555
vt 0.780090 0.633206
vt 0.856029 0.673283
vt 0.890748 0.667234
vt 0.826189 0.716491
vt 0.830337 0.753667
vt 0.793987 0.683098
vt 0.756226 0.680049
vt 0.837025 0.654421
vt 0.845230 0.618921
vt 0.846852 0.705620
vt 0.876099 0.729708
vt 0.800205 0.705389
vt 0.771643 0.729515
vt 0.810555 0.659256
vt 0.791189 0.625243
vt 0.854086 0.683092
vt 0.893141 0.680678
vt 0.820283 0.716451
vt 0.817149 0.753667
vt 0.795263 0.677242
vt 0.758638 0.666910
vt 0.842138 0.656630
vt 0.858135 0.624313
vt 0.842534 0.709820
vt 0.797045 0.700432
vt 0.816257 0.657045
vt 0.854063 0.689183
vt 0.814518 0.715252
vt 0.797654 0.671723
vt 0.850649 0.663595
vt 0.869743 0.632117
vt 0.846727 0.659766
vt 0.791901 0.717192
vt 0.778473 0.762962
vt 0.763549 0.753107
vt 0.824057 0.647022
vt 0.812229 0.601236
vt 0.828408 0.601412
vt 0.791972 0.659482
vt 0.747078 0.644136
vt 0.756172 0.630655
vt 0.830602 0.719005
vt 0.844412 0.762917
vt 0.831040 0.648661
vt 0.844224 0.604743
vt 0.797136 0.654489
vt 0.767725 0.619234
vt 0.823488 0.720256
vt 0.828457 0.766097
vt 0.837578 0.651675
vt 0.859076 0.611080
vt 0.803173 0.650620
vt 0.781283 0.610314
vt 0.816240 0.720109
vt 0.812172 0.766097
vt 0.843408 0.655958
vt 0.872415 0.620156
vt 0.809848 0.648027
vt 0.796314 0.604239
vt 0.809138 0.718570
vt 0.796188 0.762917
vt 0.848561 0.661189
vt 0.883772 0.631602
vt 0.816900 0.646810
vt 0.802466 0.715677
vt 0.781122 0.756675
vt 0.852601 0.667277
vt 0.892738 0.644994
vt 0.796480 0.711542
vt 0.767557 0.747609
vt 0.855414 0.673919
vt 0.898975 0.659849
vt 0.791412 0.706324
vt 0.756021 0.736068
vt 0.856834 0.680945
vt 0.902234 0.675635
vt 0.787455 0.700223
vt 0.746959 0.722497
vt 0.856817 0.688093
vt 0.902362 0.691767
vt 0.784764 0.693476
vt 0.740725 0.707420
vt 0.855376 0.695088
vt 0.899332 0.707632
vt 0.783439 0.686344
vt 0.737559 0.691421
vt 0.852571 0.701656
vt 0.893243 0.722613
vt 0.783530 0.679102
vt 0.737585 0.675121
vt 0.848513 0.707543
vt 0.884317 0.736123
vt 0.785032 0.672032
vt 0.740800 0.659152
vt 0.843361 0.712520
vt 0.787883 0.665406
vt 0.436926 0.417317
vt 0.404386 0.416433
vt 0.428826 0.403375
vt 0.865909 0.670428
vt 0.902734 0.639865
vt 0.909654 0.656509
vt 0.835325 0.639627
vt 0.830434 0.591815
vt 0.848145 0.595312
vt 0.785504 0.710879
vt 0.750809 0.740569
vt 0.867597 0.679222
vt 0.913166 0.674173
vt 0.843685 0.643140
vt 0.864842 0.602181
vt 0.780500 0.703485
vt 0.740745 0.725803
vt 0.867517 0.688152
vt 0.913132 0.692167
vt 0.777078 0.695307
vt 0.733756 0.709357
vt 0.865677 0.696869
vt 0.909556 0.709784
vt 0.775372 0.686633
vt 0.730129 0.691850
vt 0.862148 0.705033
vt 0.902582 0.726332
vt 0.775445 0.677799
vt 0.730024 0.673956
vt 0.857071 0.712321
vt 0.892491 0.741165
vt 0.777288 0.669138
vt 0.733457 0.656372
vt 0.850649 0.718444
vt 0.879687 0.753708
vt 0.780833 0.660998
vt 0.740300 0.639790
vt 0.843118 0.723160
vt 0.864679 0.763483
vt 0.785941 0.653681
vt 0.750286 0.624858
vt 0.834768 0.726275
vt 0.848058 0.770132
vt 0.792413 0.647469
vt 0.763025 0.612157
vt 0.825890 0.727675
vt 0.830466 0.773435
vt 0.800001 0.642606
vt 0.778019 0.602180
vt 0.816763 0.727551
vt 0.812565 0.773310
vt 0.851187 0.648200
vt 0.879881 0.612167
vt 0.808417 0.639306
vt 0.794687 0.595312
vt 0.807835 0.725705
vt 0.795017 0.769779
vt 0.857545 0.654608
vt 0.892679 0.624891
vt 0.817339 0.637700
vt 0.812385 0.591815
vt 0.799448 0.722183
vt 0.862516 0.662115
vt 0.826427 0.637799
vt 0.877952 0.920362
vt 0.799750 0.901698
vt 0.799091 0.902943
vt 0.265792 0.159212
vt 0.295942 0.169350
vt 0.269486 0.173928
vt 0.463700 0.399513
vt 0.451410 0.385551
vt 0.237867 0.168543
vt 0.243757 0.182639
vt 0.492510 0.371565
vt 0.469774 0.361434
vt 0.211094 0.182082
vt 0.219456 0.195870
vt 0.492808 0.331427
vt 0.474187 0.331665
vt 0.184457 0.199761
vt 0.196861 0.213565
vt 0.487178 0.299759
vt 0.471382 0.303115
vt 0.155833 0.227685
vt 0.178570 0.237752
vt 0.478279 0.271102
vt 0.463876 0.276451
vt 0.155587 0.267795
vt 0.174203 0.267537
vt 0.465602 0.244456
vt 0.452382 0.251807
vt 0.161225 0.299457
vt 0.177031 0.296091
vt 0.449037 0.220279
vt 0.437234 0.229565
vt 0.170132 0.328154
vt 0.184560 0.322751
vt 0.428912 0.199186
vt 0.418812 0.210200
vt 0.295517 0.440044
vt 0.274129 0.417294
vt 0.299266 0.425661
vt 0.182967 0.354907
vt 0.196111 0.347333
vt 0.405735 0.181692
vt 0.397578 0.194157
vt 0.324118 0.444685
vt 0.325492 0.429837
vt 0.199518 0.378970
vt 0.211114 0.369647
vt 0.380096 0.168205
vt 0.374068 0.181807
vt 0.353216 0.444648
vt 0.352172 0.429696
vt 0.219480 0.399893
vt 0.229522 0.388937
vt 0.352639 0.159020
vt 0.348879 0.173424
vt 0.382094 0.439918
vt 0.378670 0.425211
vt 0.242542 0.417367
vt 0.250690 0.404951
vt 0.324013 0.154349
vt 0.322625 0.169221
vt 0.410082 0.430677
vt 0.268104 0.430862
vt 0.294858 0.154349
vt 0.789765 0.925708
vt 0.780933 0.896592
vt 0.810049 0.887760
vt 0.739289 0.861312
vt 0.804734 0.908440
vt 0.805548 0.907707
vt 0.876549 0.906087
vt 0.798670 0.904203
vt 0.730143 0.873406
vt 0.806296 0.906718
vt 0.872796 0.892755
vt 0.798466 0.905375
vt 0.727960 0.888298
vt 0.806891 0.905518
vt 0.867049 0.880433
vt 0.798446 0.906436
vt 0.729374 0.902575
vt 0.807238 0.904341
vt 0.859475 0.869312
vt 0.798590 0.907374
vt 0.733138 0.915905
vt 0.807379 0.903259
vt 0.850264 0.859629
vt 0.798881 0.908176
vt 0.790491 0.967360
vt 0.805927 0.899579
vt 0.805317 0.899228
vt 0.738914 0.928196
vt 0.807350 0.902287
vt 0.839647 0.851608
vt 0.799323 0.908885
vt 0.803604 0.969448
vt 0.804632 0.899020
vt 0.746415 0.939353
vt 0.807175 0.901429
vt 0.827892 0.845433
vt 0.799867 0.909411
vt 0.816944 0.969378
vt 0.803883 0.898967
vt 0.755619 0.948998
vt 0.806869 0.900687
vt 0.815298 0.841242
vt 0.800392 0.909655
vt 0.830193 0.967135
vt 0.803087 0.899077
vt 0.766203 0.957005
vt 0.806449 0.900068
vt 0.802170 0.839140
vt 0.800977 0.909698
vt 0.843051 0.962746
vt 0.802252 0.899391
vt 0.777922 0.963177
vt 0.788829 0.839205
vt 0.801705 0.909543
vt 0.855271 0.956217
vt 0.801398 0.899921
vt 0.775601 0.841494
vt 0.802719 0.909377
vt 0.866563 0.947305
vt 0.800550 0.900684
vt 0.762737 0.845849
vt 0.803828 0.908983
vt 0.875745 0.935246
vt 0.750586 0.852465
vt 0.169626 0.606574
vt 0.154316 0.647312
vt 0.155120 0.607636
vt 0.139772 0.647475
vt 0.140575 0.607799
vt 0.184046 0.604664
vt 0.168823 0.646250
vt 0.198344 0.601991
vt 0.183243 0.644340
vt 0.220154 0.627371
vt 0.197541 0.641667
vt 0.387612 0.950874
vt 0.394988 0.960539
vt 0.387612 0.960539
vt 0.387612 0.941209
vt 0.394988 0.950874
vt 0.387612 0.931543
vt 0.394988 0.941209
vt 0.387612 0.921878
vt 0.394988 0.931543
vt 0.387612 0.912213
vt 0.394988 0.921878
vt 0.387612 0.902548
vt 0.394988 0.912213
vt 0.387612 0.892882
vt 0.394987 0.902548
vt 0.387612 0.883217
vt 0.394987 0.892882
vt 0.387612 0.873552
vt 0.394987 0.883217
vt 0.387612 0.863887
vt 0.394987 0.873552
vt 0.387612 0.854221
vt 0.394987 0.863887
vt 0.387612 0.844556
vt 0.394987 0.854221
vt 0.387612 0.834891
vt 0.394987 0.844556
vt 0.387612 0.825226
vt 0.394987 0.834891
vt 0.387612 0.815560
vt 0.394987 0.825226
vt 0.387612 0.805895
vt 0.394987 0.815560
vt 0.387612 0.796230
vt 0.394987 0.805895
vt 0.387612 0.786565
vt 0.394987 0.796230
vt 0.387612 0.776899
vt 0.394988 0.786565
vt 0.387612 0.767234
vt 0.394988 0.776899
vt 0.387612 0.757569
vt 0.394988 0.767234
vt 0.387612 0.747904
vt 0.394988 0.757569
vt 0.387612 0.738239
vt 0.394988 0.747904
vt 0.097267 0.602907
vt 0.071834 0.638629
vt 0.075179 0.628045
vt 0.111597 0.605399
vt 0.096464 0.642583
vt 0.126049 0.607047
vt 0.110794 0.645075
vt 0.125246 0.646723
vt 0.876502 0.412809
vt 0.749350 0.381498
vt 0.875328 0.421923
vt 0.758618 0.363760
vt 0.872349 0.430600
vt 0.771710 0.348663
vt 0.867708 0.438495
vt 0.765830 0.304705
vt 0.861589 0.445269
vt 0.786247 0.295324
vt 0.854039 0.450875
vt 0.808026 0.289947
vt 0.845598 0.454946
vt 0.830378 0.288720
vt 0.836585 0.457322
vt 0.852517 0.291635
vt 0.827338 0.457929
vt 0.873691 0.298537
vt 0.818202 0.456762
vt 0.893205 0.309145
vt 0.809513 0.453877
vt 0.910441 0.323065
vt 0.801590 0.449395
vt 0.924867 0.339809
vt 0.794723 0.443491
vt 0.936055 0.358820
vt 0.789165 0.436395
vt 0.943685 0.379482
vt 0.785109 0.428388
vt 0.947556 0.401146
vt 0.782708 0.419780
vt 0.947556 0.423142
vt 0.782085 0.410874
vt 0.943681 0.444790
vt 0.783265 0.402019
vt 0.936028 0.465412
vt 0.786200 0.393553
vt 0.924813 0.484341
vt 0.790780 0.385812
vt 0.910364 0.500943
vt 0.796833 0.379099
vt 0.893124 0.514631
vt 0.804121 0.373659
vt 0.873614 0.524910
vt 0.812252 0.369471
vt 0.852487 0.531402
vt 0.821027 0.366801
vt 0.830468 0.533877
vt 0.830147 0.365782
vt 0.808331 0.532223
vt 0.839318 0.366587
vt 0.786873 0.526466
vt 0.848178 0.369223
vt 0.766882 0.516796
vt 0.856353 0.373607
vt 0.769949 0.474268
vt 0.863372 0.379465
vt 0.757262 0.458666
vt 0.869112 0.386620
vt 0.748494 0.440586
vt 0.873320 0.394786
vt 0.875823 0.403637
vt 0.744428 0.400924
vt 0.744135 0.420984
vt 0.301649 0.908081
vt 0.286845 0.904679
vt 0.298371 0.902135
vt 0.288015 0.801215
vt 0.298445 0.810381
vt 0.286879 0.807920
vt 0.259456 0.908109
vt 0.253402 0.898122
vt 0.262727 0.902151
vt 0.211101 0.738594
vt 0.191202 0.743772
vt 0.224537 0.642518
vt 0.199559 0.649747
vt 0.398090 0.950874
vt 0.398090 0.960539
vt 0.398090 0.941209
vt 0.398090 0.931543
vt 0.398090 0.921878
vt 0.398090 0.912213
vt 0.398090 0.902548
vt 0.398090 0.892882
vt 0.398090 0.883217
vt 0.398090 0.873552
vt 0.398090 0.863887
vt 0.398090 0.854221
vt 0.398090 0.844556
vt 0.398090 0.834891
vt 0.398090 0.825226
vt 0.398090 0.815560
vt 0.398090 0.805895
vt 0.398090 0.796230
vt 0.398090 0.786565
vt 0.398090 0.776899
vt 0.398090 0.767234
vt 0.398090 0.757569
vt 0.398090 0.747904
vt 0.398090 0.738239
vt 0.094234 0.650607
vt 0.070426 0.643080
vt 0.112134 0.743798
vt 0.092228 0.738614
vt 0.259524 0.804452
vt 0.274328 0.807853
vt 0.262802 0.810398
vt 0.248525 0.903103
vt 0.253454 0.814464
vt 0.143219 0.729091
vt 0.125794 0.737751
vt 0.126140 0.728980
vt 0.109080 0.728857
vt 0.092044 0.728862
vt 0.394988 0.738239
vt 0.223239 0.638033
vt 0.211345 0.728849
vt 0.194319 0.728849
vt 0.177568 0.737725
vt 0.177293 0.728982
vt 0.160290 0.729103
vt 0.142614 0.733972
vt 0.160817 0.733956
vt 0.274294 0.904612
vt 0.307770 0.814410
vt 0.273158 0.911317
vt 0.248525 0.809465
vt 0.288044 0.911248
vt 0.301716 0.804423
vt 0.312647 0.903067
vt 0.307719 0.898068
vt 0.273129 0.801285
vt 0.312647 0.809430
vt 0.840501 0.227880
vt 0.774033 0.146888
vt 0.855025 0.080420
vt 0.775164 0.192955
vt 0.776866 0.175656
vt 0.782424 0.189074
vt 0.823867 0.075376
vt 0.840501 0.080420
vt 0.826257 0.083253
vt 0.929686 0.162218
vt 0.918660 0.175656
vt 0.921493 0.161411
vt 0.823867 0.232924
vt 0.812839 0.219489
vt 0.826257 0.225046
vt 0.775164 0.115345
vt 0.790493 0.107149
vt 0.782424 0.119225
vt 0.911396 0.101927
vt 0.913102 0.119225
vt 0.905033 0.107149
vt 0.886568 0.226748
vt 0.869270 0.225046
vt 0.768989 0.178046
vt 0.774033 0.161412
vt 0.839695 0.072227
vt 0.926538 0.178046
vt 0.913102 0.189074
vt 0.808958 0.226748
vt 0.800763 0.211420
vt 0.784130 0.101927
vt 0.800763 0.096880
vt 0.920362 0.115345
vt 0.918660 0.132643
vt 0.871659 0.232924
vt 0.855025 0.227880
vt 0.765841 0.162218
vt 0.871659 0.075376
vt 0.882687 0.088811
vt 0.869269 0.083253
vt 0.855832 0.072227
vt 0.920362 0.192955
vt 0.905033 0.201150
vt 0.795541 0.217783
vt 0.790493 0.201150
vt 0.795541 0.090516
vt 0.812839 0.088811
vt 0.926537 0.130254
vt 0.921493 0.146888
vt 0.855832 0.236072
vt 0.765841 0.146081
vt 0.776866 0.132644
vt 0.886568 0.081551
vt 0.894763 0.096880
vt 0.911397 0.206372
vt 0.784130 0.206372
vt 0.808958 0.081551
vt 0.929686 0.146081
vt 0.839695 0.236072
vt 0.768989 0.130254
vt 0.899986 0.090516
vt 0.057671 0.766264
vt 0.478691 0.738239
vt 0.258258 0.759035
vt 0.211253 0.880374
vt 0.813556 0.890103
vt 0.816538 0.893085
vt 0.818882 0.896592
vt 0.820496 0.900489
vt 0.821318 0.904625
vt 0.821318 0.908843
vt 0.820496 0.912979
vt 0.818882 0.916876
vt 0.816538 0.920383
vt 0.813556 0.923365
vt 0.810049 0.925708
vt 0.806153 0.927322
vt 0.802016 0.928145
vt 0.797798 0.928145
vt 0.793662 0.927322
vt 0.786258 0.923365
vt 0.783276 0.920383
vt 0.780933 0.916876
vt 0.779319 0.912979
vt 0.778496 0.908843
vt 0.778496 0.904625
vt 0.779319 0.900489
vt 0.783276 0.893085
vt 0.786258 0.890103
vt 0.789765 0.887760
vt 0.793662 0.886146
vt 0.797798 0.885323
vt 0.802016 0.885323
vt 0.806153 0.886146
s 1
usemtl None
f 289/1/1 4/2/2 290/3/3
f 290/3/3 6/4/4 291/5/5
f 291/5/5 8/6/6 292/7/7
f 292/8/7 10/9/8 293/10/9
f 293/11/9 12/12/10 294/13/11
f 294/13/11 14/14/12 295/15/13
f 295/15/13 16/16/14 296/17/15
f 296/17/15 18/18/16 297/19/17
f 297/19/17 20/20/18 298/21/19
f 298/21/19 22/22/20 299/23/21
f 299/23/21 24/24/22 300/25/23
f 300/25/23 26/26/24 301/27/25
f 301/27/25 28/28/26 302/29/27
f 302/29/27 30/30/28 303/31/29
f 303/31/29 32/32/30 304/33/31
f 304/33/31 34/34/32 305/35/33
f 305/35/33 36/36/34 306/37/35
f 306/37/35 38/38/36 307/39/37
f 307/39/37 40/40/38 308/41/39
f 308/41/39 42/42/40 309/43/41
f 309/43/41 44/44/42 310/45/43
f 310/45/43 46/46/44 311/47/45
f 311/47/45 48/48/46 312/49/47
f 312/49/47 50/50/48 313/51/49
f 313/51/49 52/52/50 314/53/51
f 314/53/51 54/54/52 315/55/53
f 315/55/53 56/56/54 316/57/55
f 316/58/55 58/59/56 317/60/57
f 317/61/57 60/62/58 318/63/59
f 318/63/59 62/64/60 319/65/61
f 22/66/20 74/67/62 75/68/63
f 320/69/64 2/70/65 289/1/1
f 319/65/61 64/71/66 320/69/64
f 23/72/67 377/73/68 376/74/68
f 79/75/69 110/76/70 111/77/71
f 40/78/38 83/79/72 84/80/73
f 58/81/56 92/82/74 93/83/75
f 14/84/12 70/85/76 71/86/77
f 32/87/30 79/88/69 80/89/78
f 50/90/48 88/91/79 89/92/80
f 6/93/4 66/94/81 67/95/82
f 24/96/22 75/68/63 76/97/83
f 42/98/40 84/80/73 85/99/84
f 60/100/58 93/83/75 94/101/85
f 16/102/14 71/86/77 72/103/86
f 34/104/32 80/89/78 81/105/87
f 52/106/50 89/92/80 90/107/88
f 8/108/6 67/95/82 68/109/89
f 26/110/24 76/97/83 77/111/90
f 44/112/42 85/99/84 86/113/91
f 62/114/60 94/101/85 95/115/92
f 18/116/16 72/103/86 73/117/93
f 36/118/34 81/105/87 82/119/94
f 54/120/52 90/107/88 91/121/95
f 10/122/8 68/109/89 69/123/96
f 28/124/26 77/111/90 78/125/97
f 46/126/44 86/113/91 87/127/98
f 64/128/66 95/115/92 96/129/99
f 20/130/18 73/117/93 74/67/62
f 38/131/36 82/119/94 83/79/72
f 56/132/54 91/121/95 92/82/74
f 12/133/10 69/123/96 70/85/76
f 30/134/28 78/125/97 79/88/69
f 48/135/46 87/127/98 88/91/79
f 4/136/2 65/137/100 66/94/81
f 2/138/65 96/129/99 65/137/100
f 114/139/101 145/140/102 146/141/103
f 66/142/81 97/143/104 98/144/105
f 93/145/75 124/146/106 125/147/107
f 80/148/78 111/77/71 112/149/108
f 67/150/82 98/144/105 99/151/109
f 94/152/85 125/147/107 126/153/110
f 81/154/87 112/149/108 113/155/111
f 68/156/89 99/151/109 100/157/112
f 95/158/92 126/153/110 127/159/113
f 82/160/94 113/155/111 114/161/101
f 69/162/96 100/157/112 101/163/114
f 96/164/99 127/159/113 128/165/115
f 83/166/72 114/161/101 115/167/116
f 70/168/76 101/163/114 102/169/117
f 65/170/100 128/165/115 97/143/104
f 84/171/73 115/167/116 116/172/118
f 71/173/77 102/169/117 103/174/119
f 85/175/84 116/172/118 117/176/120
f 72/177/86 103/174/119 104/178/121
f 86/179/91 117/176/120 118/180/122
f 73/181/93 104/178/121 105/182/123
f 87/183/98 118/180/122 119/184/124
f 74/185/62 105/182/123 106/186/125
f 88/187/79 119/184/124 120/188/126
f 75/189/63 106/186/125 107/190/127
f 89/191/80 120/188/126 121/192/128
f 76/193/83 107/190/127 108/194/129
f 90/195/88 121/192/128 122/196/130
f 77/197/90 108/194/129 109/198/131
f 91/199/95 122/196/130 123/200/132
f 78/201/97 109/198/131 110/76/70
f 92/202/74 123/200/132 124/146/106
f 135/203/133 166/204/134 167/205/135
f 101/206/114 132/207/136 133/208/137
f 128/209/115 159/210/138 160/211/139
f 115/212/116 146/141/103 147/213/140
f 102/214/117 133/208/137 134/215/141
f 97/216/104 160/211/139 129/217/142
f 116/218/118 147/213/140 148/219/143
f 103/220/119 134/215/141 135/221/133
f 117/222/120 148/219/143 149/223/144
f 104/224/121 135/221/133 136/225/145
f 118/226/122 149/223/144 150/227/146
f 105/228/123 136/225/145 137/229/147
f 119/230/124 150/227/146 151/231/148
f 106/232/125 137/229/147 138/233/149
f 120/234/126 151/231/148 152/235/150
f 107/236/127 138/233/149 139/237/151
f 121/238/128 152/235/150 153/239/152
f 108/240/129 139/237/151 140/241/153
f 122/242/130 153/239/152 154/243/154
f 109/244/131 140/241/153 141/245/155
f 123/246/132 154/243/154 155/247/156
f 110/248/70 141/245/155 142/249/157
f 124/250/106 155/247/156 156/251/158
f 111/252/71 142/249/157 143/253/159
f 98/254/105 129/217/142 130/255/160
f 125/256/107 156/251/158 157/257/161
f 112/258/108 143/253/159 144/259/162
f 99/260/109 130/255/160 131/261/163
f 126/262/110 157/257/161 158/263/164
f 113/264/111 144/259/162 145/140/102
f 100/265/112 131/261/163 132/207/136
f 127/266/113 158/263/164 159/210/138
f 170/267/165 201/268/166 202/269/167
f 149/270/144 180/271/168 181/272/169
f 136/273/145 167/205/135 168/274/170
f 150/275/146 181/272/169 182/276/171
f 137/277/147 168/274/170 169/278/172
f 151/279/148 182/276/171 183/280/173
f 138/281/149 169/278/172 170/282/165
f 152/283/150 183/280/173 184/284/174
f 139/285/151 170/282/165 171/286/175
f 153/287/152 184/284/174 185/288/176
f 140/289/153 171/286/175 172/290/177
f 154/291/154 185/288/176 186/292/178
f 141/293/155 172/290/177 173/294/179
f 155/295/156 186/292/178 187/296/180
f 142/297/157 173/294/179 174/298/181
f 156/299/158 187/296/180 188/300/182
f 143/301/159 174/298/181 175/302/183
f 130/303/160 162/304/184 161/305/185
f 157/306/161 188/300/182 189/307/186
f 144/308/162 175/302/183 176/309/187
f 131/310/163 161/305/185 163/311/188
f 158/312/164 189/307/186 190/313/189
f 145/314/102 176/309/187 177/315/190
f 132/316/136 163/311/188 164/317/191
f 159/318/138 190/313/189 191/319/192
f 146/320/103 177/315/190 178/321/193
f 133/322/137 164/317/191 165/323/194
f 160/324/139 191/319/192 192/325/195
f 147/326/140 178/321/193 179/327/196
f 134/328/141 165/323/194 166/204/134
f 129/329/142 192/325/195 162/304/184
f 148/330/143 179/327/196 180/271/168
f 211/331/197 203/332/198 195/333/199
f 184/334/174 215/335/200 216/336/201
f 171/337/175 202/269/167 203/338/198
f 185/339/176 216/336/201 217/340/202
f 172/341/177 203/338/198 204/342/203
f 186/343/178 217/340/202 218/344/204
f 173/345/179 204/342/203 205/346/205
f 187/347/180 218/344/204 219/348/206
f 174/349/181 205/346/205 206/350/207
f 188/351/182 219/348/206 220/352/208
f 175/353/183 206/350/207 207/354/209
f 161/355/185 194/356/210 193/357/211
f 189/358/186 220/352/208 221/359/212
f 176/360/187 207/354/209 208/361/213
f 163/362/188 193/357/211 195/363/199
f 190/364/189 221/359/212 222/365/214
f 177/366/190 208/361/213 209/367/215
f 164/368/191 195/363/199 196/369/216
f 191/370/192 222/365/214 223/371/217
f 178/372/193 209/367/215 210/373/218
f 165/374/194 196/369/216 197/375/219
f 192/376/195 223/371/217 224/377/220
f 179/378/196 210/373/218 211/379/197
f 166/380/134 197/375/219 198/381/221
f 162/382/184 224/377/220 194/356/210
f 180/383/168 211/379/197 212/384/222
f 167/385/135 198/381/221 199/386/223
f 181/387/169 212/384/222 213/388/224
f 168/389/170 199/386/223 200/390/225
f 182/391/171 213/388/224 214/392/226
f 169/393/172 200/390/225 201/268/166
f 183/394/173 214/392/226 215/335/200
f 286/395/227 256/396/228 287/397/229
f 287/397/229 225/398/230 288/399/231
f 285/400/232 255/401/233 286/395/227
f 284/402/234 254/403/235 285/400/232
f 283/404/236 253/405/237 284/402/234
f 282/406/53 252/407/238 283/408/236
f 281/409/51 251/410/53 282/406/53
f 280/411/49 250/412/51 281/409/51
f 279/413/47 249/414/49 280/411/49
f 278/415/45 248/416/47 279/413/47
f 277/417/43 247/418/45 278/415/45
f 276/419/41 246/420/43 277/417/43
f 275/421/39 245/422/41 276/419/41
f 274/423/37 244/424/39 275/421/39
f 273/425/35 243/426/37 274/423/37
f 272/427/33 242/428/35 273/425/35
f 271/429/31 241/430/33 272/427/33
f 270/431/29 240/432/31 271/429/31
f 269/433/27 239/434/29 270/431/29
f 268/435/25 238/436/27 269/433/27
f 267/437/23 237/438/25 268/435/25
f 266/439/21 236/440/23 267/437/23
f 265/441/19 235/442/21 266/439/21
f 264/443/17 234/444/19 265/441/19
f 263/445/15 233/446/17 264/443/17
f 262/447/13 232/448/15 263/445/15
f 261/449/11 231/450/13 262/447/13
f 260/451/239 230/452/11 261/449/11
f 259/453/240 229/454/241 260/455/239
f 258/456/242 228/457/243 259/453/240
f 257/458/244 227/459/245 258/456/242
f 288/399/231 226/460/246 257/458/244
f 1/461/247 257/462/244 3/463/248
f 3/463/248 258/464/242 5/465/249
f 5/465/249 259/466/240 7/467/250
f 7/467/250 260/468/239 9/469/251
f 9/469/251 261/470/11 11/471/252
f 11/471/252 262/472/13 13/473/253
f 13/473/253 263/474/15 15/475/254
f 15/475/254 264/476/17 17/477/255
f 17/477/255 265/478/19 19/479/256
f 19/479/256 266/480/21 21/481/257
f 21/481/257 267/482/23 23/483/67
f 23/483/67 268/484/25 25/485/258
f 25/485/258 269/486/27 27/487/259
f 27/487/259 270/488/29 29/489/260
f 29/489/260 271/490/31 31/491/261
f 31/491/261 272/492/33 33/493/262
f 33/493/262 273/494/35 35/495/263
f 35/495/263 274/496/37 37/497/264
f 37/497/264 275/498/39 39/499/265
f 39/499/265 276/500/41 41/501/266
f 41/501/266 277/502/43 43/503/267
f 43/503/267 278/504/45 45/505/268
f 45/505/268 279/506/47 47/507/269
f 47/507/269 280/508/49 49/509/270
f 49/509/270 281/510/51 51/511/271
f 51/511/271 282/512/53 53/513/272
f 53/513/272 283/514/236 55/515/273
f 55/515/273 284/516/234 57/517/274
f 57/517/274 285/518/232 59/519/275
f 59/519/275 286/520/227 61/521/276
f 63/522/277 288/523/231 1/461/247
f 61/521/276 287/524/229 63/522/277
f 319/525/61 356/526/278 355/527/279
f 351/528/280 363/529/281 364/530/282
f 290/531/3 359/532/283 358/533/284
f 348/534/285 318/63/59 349/535/286
f 347/536/287 317/60/57 348/537/285
f 346/538/53 316/57/55 347/539/287
f 345/540/51 315/55/53 346/538/53
f 344/541/49 314/53/51 345/540/51
f 343/542/47 313/51/49 344/541/49
f 342/543/45 312/49/47 343/542/47
f 341/544/43 311/47/45 342/543/45
f 340/545/41 310/45/43 341/544/43
f 339/546/39 309/43/41 340/545/41
f 338/547/37 308/41/39 339/546/39
f 337/548/35 307/39/37 338/547/37
f 336/549/33 306/37/35 337/548/35
f 335/550/31 305/35/33 336/549/33
f 334/551/29 304/33/31 335/550/31
f 333/552/27 303/31/29 334/551/29
f 332/553/25 302/29/27 333/552/27
f 331/554/23 301/27/25 332/553/25
f 330/555/21 300/25/23 331/554/23
f 329/556/19 299/23/21 330/555/21
f 328/557/17 298/21/19 329/556/19
f 327/558/15 297/19/17 328/557/17
f 326/559/13 296/17/15 327/558/15
f 325/560/11 295/15/13 326/559/13
f 324/561/288 294/13/11 325/560/11
f 323/562/289 293/10/9 324/563/288
f 322/564/290 292/7/7 323/565/289
f 321/566/291 353/567/292 360/568/293
f 291/569/5 361/570/294 359/532/283
f 225/571/230 321/572/291 226/573/246
f 226/573/246 322/564/290 227/574/245
f 227/574/245 323/565/289 228/575/243
f 228/457/243 324/563/288 229/454/241
f 229/576/241 325/560/11 230/452/11
f 230/452/11 326/559/13 231/450/13
f 231/450/13 327/558/15 232/448/15
f 232/448/15 328/557/17 233/446/17
f 233/446/17 329/556/19 234/444/19
f 234/444/19 330/555/21 235/442/21
f 235/442/21 331/554/23 236/440/23
f 236/440/23 332/553/25 237/438/25
f 237/438/25 333/552/27 238/436/27
f 238/436/27 334/551/29 239/434/29
f 239/434/29 335/550/31 240/432/31
f 240/432/31 336/549/33 241/430/33
f 241/430/33 337/548/35 242/428/35
f 242/428/35 338/547/37 243/426/37
f 243/426/37 339/546/39 244/424/39
f 244/424/39 340/545/41 245/422/41
f 245/422/41 341/544/43 246/420/43
f 246/420/43 342/543/45 247/418/45
f 247/418/45 343/542/47 248/416/47
f 248/416/47 344/541/49 249/414/49
f 249/414/49 345/540/51 250/412/51
f 250/412/51 346/538/53 251/410/53
f 251/410/53 347/539/287 252/407/238
f 252/577/238 348/537/285 253/405/237
f 253/578/237 349/535/286 254/579/235
f 254/579/235 350/580/295 255/581/233
f 256/582/228 352/583/296 225/571/230
f 255/581/233 351/584/280 256/582/228
f 363/529/281 356/526/278 364/530/282
f 364/530/282 354/585/297 353/567/292
f 362/586/298 355/527/279 363/529/281
f 360/568/293 359/532/283 361/570/294
f 353/567/292 358/533/284 360/568/293
f 289/587/1 358/533/284 354/585/297
f 322/588/290 360/568/293 361/570/294
f 320/589/64 354/585/297 356/526/278
f 350/590/295 362/586/298 363/529/281
f 318/591/59 355/527/279 357/592/299
f 352/593/296 364/530/282 353/567/292
f 349/594/286 357/592/299 362/586/298
f 380/595/68 388/596/68 396/597/68
f 41/598/266 386/599/68 385/600/68
f 59/601/275 395/602/68 394/603/68
f 15/604/254 373/605/68 372/606/68
f 33/607/262 382/608/68 381/609/68
f 51/610/271 391/611/68 390/612/68
f 7/613/250 369/614/68 368/615/68
f 25/616/258 378/617/68 377/73/68
f 43/618/267 387/619/68 386/599/68
f 61/620/276 396/597/68 395/602/68
f 17/621/255 374/622/68 373/605/68
f 35/623/263 383/624/68 382/608/68
f 53/625/272 392/626/68 391/611/68
f 9/627/251 370/628/68 369/614/68
f 27/629/259 379/630/68 378/617/68
f 45/631/268 388/596/68 387/619/68
f 1/632/247 366/633/68 365/634/68
f 63/635/277 365/634/68 396/597/68
f 19/636/256 375/637/68 374/622/68
f 37/638/264 384/639/68 383/624/68
f 55/640/273 393/641/68 392/626/68
f 11/642/252 371/643/68 370/628/68
f 29/644/260 380/595/68 379/630/68
f 47/645/269 389/646/68 388/596/68
f 3/647/248 367/648/68 366/633/68
f 21/649/257 376/74/68 375/637/68
f 39/650/265 385/600/68 384/639/68
f 57/651/274 394/603/68 393/641/68
f 13/652/253 372/606/68 371/643/68
f 31/653/261 381/609/68 380/595/68
f 49/654/270 390/612/68 389/646/68
f 5/655/249 368/615/68 367/648/68
f 289/1/1 2/70/65 4/2/2
f 290/3/3 4/2/2 6/4/4
f 291/5/5 6/4/4 8/6/6
f 292/8/7 8/656/6 10/9/8
f 293/11/9 10/657/8 12/12/10
f 294/13/11 12/12/10 14/14/12
f 295/15/13 14/14/12 16/16/14
f 296/17/15 16/16/14 18/18/16
f 297/19/17 18/18/16 20/20/18
f 298/21/19 20/20/18 22/22/20
f 299/23/21 22/22/20 24/24/22
f 300/25/23 24/24/22 26/26/24
f 301/27/25 26/26/24 28/28/26
f 302/29/27 28/28/26 30/30/28
f 303/31/29 30/30/28 32/32/30
f 304/33/31 32/32/30 34/34/32
f 305/35/33 34/34/32 36/36/34
f 306/37/35 36/36/34 38/38/36
f 307/39/37 38/38/36 40/40/38
f 308/41/39 40/40/38 42/42/40
f 309/43/41 42/42/40 44/44/42
f 310/45/43 44/44/42 46/46/44
f 311/47/45 46/46/44 48/48/46
f 312/49/47 48/48/46 50/50/48
f 313/51/49 50/50/48 52/52/50
f 314/53/51 52/52/50 54/54/52
f 315/55/53 54/54/52 56/56/54
f 316/58/55 56/658/54 58/59/56
f 317/61/57 58/659/56 60/62/58
f 318/63/59 60/62/58 62/64/60
f 22/66/20 20/130/18 74/67/62
f 320/69/64 64/71/66 2/70/65
f 319/65/61 62/64/60 64/71/66
f 23/72/67 25/616/258 377/73/68
f 79/75/69 78/201/97 110/76/70
f 40/78/38 38/131/36 83/79/72
f 58/81/56 56/132/54 92/82/74
f 14/84/12 12/133/10 70/85/76
f 32/87/30 30/134/28 79/88/69
f 50/90/48 48/135/46 88/91/79
f 6/93/4 4/136/2 66/94/81
f 24/96/22 22/66/20 75/68/63
f 42/98/40 40/78/38 84/80/73
f 60/100/58 58/81/56 93/83/75
f 16/102/14 14/84/12 71/86/77
f 34/104/32 32/87/30 80/89/78
f 52/106/50 50/90/48 89/92/80
f 8/108/6 6/93/4 67/95/82
f 26/110/24 24/96/22 76/97/83
f 44/112/42 42/98/40 85/99/84
f 62/114/60 60/100/58 94/101/85
f 18/116/16 16/102/14 72/103/86
f 36/118/34 34/104/32 81/105/87
f 54/120/52 52/106/50 90/107/88
f 10/122/8 8/108/6 68/109/89
f 28/124/26 26/110/24 77/111/90
f 46/126/44 44/112/42 86/113/91
f 64/128/66 62/114/60 95/115/92
f 20/130/18 18/116/16 73/117/93
f 38/131/36 36/118/34 82/119/94
f 56/132/54 54/120/52 91/121/95
f 12/133/10 10/122/8 69/123/96
f 30/134/28 28/124/26 78/125/97
f 48/135/46 46/126/44 87/127/98
f 4/136/2 2/138/65 65/137/100
f 2/138/65 64/128/66 96/129/99
f 114/139/101 113/264/111 145/140/102
f 66/142/81 65/170/100 97/143/104
f 93/145/75 92/202/74 124/146/106
f 80/148/78 79/75/69 111/77/71
f 67/150/82 66/142/81 98/144/105
f 94/152/85 93/145/75 125/147/107
f 81/154/87 80/148/78 112/149/108
f 68/156/89 67/150/82 99/151/109
f 95/158/92 94/152/85 126/153/110
f 82/160/94 81/154/87 113/155/111
f 69/162/96 68/156/89 100/157/112
f 96/164/99 95/158/92 127/159/113
f 83/166/72 82/160/94 114/161/101
f 70/168/76 69/162/96 101/163/114
f 65/170/100 96/164/99 128/165/115
f 84/171/73 83/166/72 115/167/116
f 71/173/77 70/168/76 102/169/117
f 85/175/84 84/171/73 116/172/118
f 72/177/86 71/173/77 103/174/119
f 86/179/91 85/175/84 117/176/120
f 73/181/93 72/177/86 104/178/121
f 87/183/98 86/179/91 118/180/122
f 74/185/62 73/181/93 105/182/123
f 88/187/79 87/183/98 119/184/124
f 75/189/63 74/185/62 106/186/125
f 89/191/80 88/187/79 120/188/126
f 76/193/83 75/189/63 107/190/127
f 90/195/88 89/191/80 121/192/128
f 77/197/90 76/193/83 108/194/129
f 91/199/95 90/195/88 122/196/130
f 78/201/97 77/197/90 109/198/131
f 92/202/74 91/199/95 123/200/132
f 135/203/133 134/328/141 166/204/134
f 101/206/114 100/265/112 132/207/136
f 128/209/115 127/266/113 159/210/138
f 115/212/116 114/139/101 146/141/103
f 102/214/117 101/206/114 133/208/137
f 97/216/104 128/209/115 160/211/139
f 116/218/118 115/212/116 147/213/140
f 103/220/119 102/214/117 134/215/141
f 117/222/120 116/218/118 148/219/143
f 104/224/121 103/220/119 135/221/133
f 118/226/122 117/222/120 149/223/144
f 105/228/123 104/224/121 136/225/145
f 119/230/124 118/226/122 150/227/146
f 106/232/125 105/228/123 137/229/147
f 120/234/126 119/230/124 151/231/148
f 107/236/127 106/232/125 138/233/149
f 121/238/128 120/234/126 152/235/150
f 108/240/129 107/236/127 139/237/151
f 122/242/130 121/238/128 153/239/152
f 109/244/131 108/240/129 140/241/153
f 123/246/132 122/242/130 154/243/154
f 110/248/70 109/244/131 141/245/155
f 124/250/106 123/246/132 155/247/156
f 111/252/71 110/248/70 142/249/157
f 98/254/105 97/216/104 129/217/142
f 125/256/107 124/250/106 156/251/158
f 112/258/108 111/252/71 143/253/159
f 99/260/109 98/254/105 130/255/160
f 126/262/110 125/256/107 157/257/161
f 113/264/111 112/258/108 144/259/162
f 100/265/112 99/260/109 131/261/163
f 127/266/113 126/262/110 158/263/164
f 170/267/165 169/393/172 201/268/166
f 149/270/144 148/330/143 180/271/168
f 136/273/145 135/203/133 167/205/135
f 150/275/146 149/270/144 181/272/169
f 137/277/147 136/273/145 168/274/170
f 151/279/148 150/275/146 182/276/171
f 138/281/149 137/277/147 169/278/172
f 152/283/150 151/279/148 183/280/173
f 139/285/151 138/281/149 170/282/165
f 153/287/152 152/283/150 184/284/174
f 140/289/153 139/285/151 171/286/175
f 154/291/154 153/287/152 185/288/176
f 141/293/155 140/289/153 172/290/177
f 155/295/156 154/291/154 186/292/178
f 142/297/157 141/293/155 173/294/179
f 156/299/158 155/295/156 187/296/180
f 143/301/159 142/297/157 174/298/181
f 130/303/160 129/329/142 162/304/184
f 157/306/161 156/299/158 188/300/182
f 144/308/162 143/301/159 175/302/183
f 131/310/163 130/303/160 161/305/185
f 158/312/164 157/306/161 189/307/186
f 145/314/102 144/308/162 176/309/187
f 132/316/136 131/310/163 163/311/188
f 159/318/138 158/312/164 190/313/189
f 146/320/103 145/314/102 177/315/190
f 133/322/137 132/316/136 164/317/191
f 160/324/139 159/318/138 191/319/192
f 147/326/140 146/320/103 178/321/193
f 134/328/141 133/322/137 165/323/194
f 129/329/142 160/324/139 192/325/195
f 148/330/143 147/326/140 179/327/196
f 195/333/199 193/660/211 194/661/210
f 194/661/210 224/662/220 223/663/217
f 223/663/217 222/664/214 221/665/212
f 221/665/212 220/666/208 219/667/206
f 219/667/206 218/668/204 217/669/202
f 217/669/202 216/670/201 215/671/200
f 215/671/200 214/672/226 213/673/224
f 213/673/224 212/674/222 211/331/197
f 211/331/197 210/675/218 209/676/215
f 209/676/215 208/677/213 207/678/209
f 207/678/209 206/679/207 205/680/205
f 205/680/205 204/681/203 203/332/198
f 203/332/198 202/682/167 201/683/166
f 201/683/166 200/684/225 199/685/223
f 199/685/223 198/686/221 197/687/219
f 197/687/219 196/688/216 195/333/199
f 195/333/199 194/661/210 223/663/217
f 223/663/217 221/665/212 219/667/206
f 219/667/206 217/669/202 215/671/200
f 215/671/200 213/673/224 211/331/197
f 211/331/197 209/676/215 207/678/209
f 207/678/209 205/680/205 203/332/198
f 203/332/198 201/683/166 199/685/223
f 199/685/223 197/687/219 195/333/199
f 195/333/199 223/663/217 219/667/206
f 219/667/206 215/671/200 211/331/197
f 211/331/197 207/678/209 203/332/198
f 203/332/198 199/685/223 195/333/199
f 195/333/199 219/667/206 211/331/197
f 184/334/174 183/394/173 215/335/200
f 171/337/175 170/267/165 202/269/167
f 185/339/176 184/334/174 216/336/201
f 172/341/177 171/337/175 203/338/198
f 186/343/178 185/339/176 217/340/202
f 173/345/179 172/341/177 204/342/203
f 187/347/180 186/343/178 218/344/204
f 174/349/181 173/345/179 205/346/205
f 188/351/182 187/347/180 219/348/206
f 175/353/183 174/349/181 206/350/207
f 161/355/185 162/382/184 194/356/210
f 189/358/186 188/351/182 220/352/208
f 176/360/187 175/353/183 207/354/209
f 163/362/188 161/355/185 193/357/211
f 190/364/189 189/358/186 221/359/212
f 177/366/190 176/360/187 208/361/213
f 164/368/191 163/362/188 195/363/199
f 191/370/192 190/364/189 222/365/214
f 178/372/193 177/366/190 209/367/215
f 165/374/194 164/368/191 196/369/216
f 192/376/195 191/370/192 223/371/217
f 179/378/196 178/372/193 210/373/218
f 166/380/134 165/374/194 197/375/219
f 162/382/184 192/376/195 224/377/220
f 180/383/168 179/378/196 211/379/197
f 167/385/135 166/380/134 198/381/221
f 181/387/169 180/383/168 212/384/222
f 168/389/170 167/385/135 199/386/223
f 182/391/171 181/387/169 213/388/224
f 169/393/172 168/389/170 200/390/225
f 183/394/173 182/391/171 214/392/226
f 286/395/227 255/401/233 256/396/228
f 287/397/229 256/396/228 225/398/230
f 285/400/232 254/403/235 255/401/233
f 284/402/234 253/405/237 254/403/235
f 283/404/236 252/577/238 253/405/237
f 282/406/53 251/410/53 252/407/238
f 281/409/51 250/412/51 251/410/53
f 280/411/49 249/414/49 250/412/51
f 279/413/47 248/416/47 249/414/49
f 278/415/45 247/418/45 248/416/47
f 277/417/43 246/420/43 247/418/45
f 276/419/41 245/422/41 246/420/43
f 275/421/39 244/424/39 245/422/41
f 274/423/37 243/426/37 244/424/39
f 273/425/35 242/428/35 243/426/37
f 272/427/33 241/430/33 242/428/35
f 271/429/31 240/432/31 241/430/33
f 270/431/29 239/434/29 240/432/31
f 269/433/27 238/436/27 239/434/29
f 268/435/25 237/438/25 238/436/27
f 267/437/23 236/440/23 237/438/25
f 266/439/21 235/442/21 236/440/23
f 265/441/19 234/444/19 235/442/21
f 264/443/17 233/446/17 234/444/19
f 263/445/15 232/448/15 233/446/17
f 262/447/13 231/450/13 232/448/15
f 261/449/11 230/452/11 231/450/13
f 260/451/239 229/576/241 230/452/11
f 259/453/240 228/457/243 229/454/241
f 258/456/242 227/459/245 228/457/243
f 257/458/244 226/460/246 227/459/245
f 288/399/231 225/398/230 226/460/246
f 1/461/247 288/523/231 257/462/244
f 3/463/248 257/462/244 258/464/242
f 5/465/249 258/464/242 259/466/240
f 7/467/250 259/466/240 260/468/239
f 9/469/251 260/468/239 261/470/11
f 11/471/252 261/470/11 262/472/13
f 13/473/253 262/472/13 263/474/15
f 15/475/254 263/474/15 264/476/17
f 17/477/255 264/476/17 265/478/19
f 19/479/256 265/478/19 266/480/21
f 21/481/257 266/480/21 267/482/23
f 23/483/67 267/482/23 268/484/25
f 25/485/258 268/484/25 269/486/27
f 27/487/259 269/486/27 270/488/29
f 29/489/260 270/488/29 271/490/31
f 31/491/261 271/490/31 272/492/33
f 33/493/262 272/492/33 273/494/35
f 35/495/263 273/494/35 274/496/37
f 37/497/264 274/496/37 275/498/39
f 39/499/265 275/498/39 276/500/41
f 41/501/266 276/500/41 277/502/43
f 43/503/267 277/502/43 278/504/45
f 45/505/268 278/504/45 279/506/47
f 47/507/269 279/506/47 280/508/49
f 49/509/270 280/508/49 281/510/51
f 51/511/271 281/510/51 282/512/53
f 53/513/272 282/512/53 283/514/236
f 55/515/273 283/514/236 284/516/234
f 57/517/274 284/516/234 285/518/232
f 59/519/275 285/518/232 286/520/227
f 63/522/277 287/524/229 288/523/231
f 61/521/276 286/520/227 287/524/229
f 319/525/61 320/589/64 356/526/278
f 351/528/280 350/590/295 363/529/281
f 290/531/3 291/569/5 359/532/283
f 348/534/285 317/61/57 318/63/59
f 347/536/287 316/58/55 317/60/57
f 346/538/53 315/55/53 316/57/55
f 345/540/51 314/53/51 315/55/53
f 344/541/49 313/51/49 314/53/51
f 343/542/47 312/49/47 313/51/49
f 342/543/45 311/47/45 312/49/47
f 341/544/43 310/45/43 311/47/45
f 340/545/41 309/43/41 310/45/43
f 339/546/39 308/41/39 309/43/41
f 338/547/37 307/39/37 308/41/39
f 337/548/35 306/37/35 307/39/37
f 336/549/33 305/35/33 306/37/35
f 335/550/31 304/33/31 305/35/33
f 334/551/29 303/31/29 304/33/31
f 333/552/27 302/29/27 303/31/29
f 332/553/25 301/27/25 302/29/27
f 331/554/23 300/25/23 301/27/25
f 330/555/21 299/23/21 300/25/23
f 329/556/19 298/21/19 299/23/21
f 328/557/17 297/19/17 298/21/19
f 327/558/15 296/17/15 297/19/17
f 326/559/13 295/15/13 296/17/15
f 325/560/11 294/13/11 295/15/13
f 324/561/288 293/11/9 294/13/11
f 323/562/289 292/8/7 293/10/9
f 322/564/290 291/5/5 292/7/7
f 321/566/291 352/593/296 353/567/292
f 291/569/5 322/588/290 361/570/294
f 225/571/230 352/583/296 321/572/291
f 226/573/246 321/572/291 322/564/290
f 227/574/245 322/564/290 323/565/289
f 228/457/243 323/562/289 324/563/288
f 229/576/241 324/561/288 325/560/11
f 230/452/11 325/560/11 326/559/13
f 231/450/13 326/559/13 327/558/15
f 232/448/15 327/558/15 328/557/17
f 233/446/17 328/557/17 329/556/19
f 234/444/19 329/556/19 330/555/21
f 235/442/21 330/555/21 331/554/23
f 236/440/23 331/554/23 332/553/25
f 237/438/25 332/553/25 333/552/27
f 238/436/27 333/552/27 334/551/29
f 239/434/29 334/551/29 335/550/31
f 240/432/31 335/550/31 336/549/33
f 241/430/33 336/549/33 337/548/35
f 242/428/35 337/548/35 338/547/37
f 243/426/37 338/547/37 339/546/39
f 244/424/39 339/546/39 340/545/41
f 245/422/41 340/545/41 341/544/43
f 246/420/43 341/544/43 342/543/45
f 247/418/45 342/543/45 343/542/47
f 248/416/47 343/542/47 344/541/49
f 249/414/49 344/541/49 345/540/51
f 250/412/51 345/540/51 346/538/53
f 251/410/53 346/538/53 347/539/287
f 252/577/238 347/536/287 348/537/285
f 253/578/237 348/534/285 349/535/286
f 254/579/235 349/535/286 350/580/295
f 256/582/228 351/584/280 352/583/296
f 255/581/233 350/580/295 351/584/280
f 363/529/281 355/527/279 356/526/278
f 364/530/282 356/526/278 354/585/297
f 362/586/298 357/592/299 355/527/279
f 360/568/293 358/533/284 359/532/283
f 353/567/292 354/585/297 358/533/284
f 289/587/1 290/531/3 358/533/284
f 322/588/290 321/566/291 360/568/293
f 320/589/64 289/587/1 354/585/297
f 350/590/295 349/594/286 362/586/298
f 318/591/59 319/525/61 355/527/279
f 352/593/296 351/528/280 364/530/282
f 349/594/286 318/591/59 357/592/299
f 396/597/68 365/634/68 366/633/68
f 366/633/68 367/648/68 368/615/68
f 368/615/68 369/614/68 370/628/68
f 370/628/68 371/643/68 372/606/68
f 372/606/68 373/605/68 374/622/68
f 374/622/68 375/637/68 376/74/68
f 376/74/68 377/73/68 378/617/68
f 378/617/68 379/630/68 380/595/68
f 380/595/68 381/609/68 382/608/68
f 382/608/68 383/624/68 384/639/68
f 384/639/68 385/600/68 386/599/68
f 386/599/68 387/619/68 388/596/68
f 388/596/68 389/646/68 390/612/68
f 390/612/68 391/611/68 392/626/68
f 392/626/68 393/641/68 394/603/68
f 394/603/68 395/602/68 396/597/68
f 396/597/68 366/633/68 368/615/68
f 368/615/68 370/628/68 372/606/68
f 372/606/68 374/622/68 376/74/68
f 376/74/68 378/617/68 380/595/68
f 380/595/68 382/608/68 384/639/68
f 384/639/68 386/599/68 388/596/68
f 388/596/68 390/612/68 392/626/68
f 392/626/68 394/603/68 396/597/68
f 396/597/68 368/615/68 372/606/68
f 372/606/68 376/74/68 380/595/68
f 380/595/68 384/639/68 388/596/68
f 388/596/68 392/626/68 396/597/68
f 396/597/68 372/606/68 380/595/68
f 41/598/266 43/618/267 386/599/68
f 59/601/275 61/620/276 395/602/68
f 15/604/254 17/621/255 373/605/68
f 33/607/262 35/623/263 382/608/68
f 51/610/271 53/625/272 391/611/68
f 7/613/250 9/627/251 369/614/68
f 25/616/258 27/629/259 378/617/68
f 43/618/267 45/631/268 387/619/68
f 61/620/276 63/635/277 396/597/68
f 17/621/255 19/636/256 374/622/68
f 35/623/263 37/638/264 383/624/68
f 53/625/272 55/640/273 392/626/68
f 9/627/251 11/642/252 370/628/68
f 27/629/259 29/644/260 379/630/68
f 45/631/268 47/645/269 388/596/68
f 1/632/247 3/647/248 366/633/68
f 63/635/277 1/632/247 365/634/68
f 19/636/256 21/649/257 375/637/68
f 37/638/264 39/650/265 384/639/68
f 55/640/273 57/651/274 393/641/68
f 11/642/252 13/652/253 371/643/68
f 29/644/260 31/653/261 380/595/68
f 47/645/269 49/654/270 389/646/68
f 3/647/248 5/655/249 367/648/68
f 21/649/257 23/72/67 376/74/68
f 39/650/265 41/598/266 385/600/68
f 57/651/274 59/601/275 394/603/68
f 13/652/253 15/604/254 372/606/68
f 31/653/261 33/607/262 381/609/68
f 49/654/270 51/610/271 390/612/68
f 5/655/249 7/613/250 368/615/68
